<?xml version="1.0" encoding="iso-8859-1"?>
<!-- Generator: Adobe Illustrator 19.0.0, SVG Export Plug-In . SVG Version: 6.00 Build 0)  -->
<svg version="1.1" id="Layer_1" xmlns="http://www.w3.org/2000/svg" xmlns:xlink="http://www.w3.org/1999/xlink" x="0px" y="0px"
	 viewBox="0 0 512 512" style="enable-background:new 0 0 512 512;" xml:space="preserve">
<circle style="fill:#05BEA6;" cx="256" cy="256" r="256"/>
<path style="fill:#00A49A;" d="M304.785,507.337c102.683-19.815,183.498-100.974,202.8-203.84l-183.422-183.42l-118.156,18.697
	v126.995l74.959,74.959l-136.289,6.503L304.785,507.337z"/>
<ellipse style="fill:#324A5E;" cx="256" cy="341.333" rx="113.778" ry="28.444"/>
<path style="fill:#2B3B4E;" d="M369.778,341.333c0-15.686-50.785-28.403-113.49-28.443v56.885
	C318.993,369.736,369.778,357.019,369.778,341.333z"/>
<path style="fill:#FFD15D;" d="M256,89.024c-49.931,0-90.407,40.477-90.407,90.407S256,337.644,256,337.644
	s90.407-108.282,90.407-158.213S305.931,89.024,256,89.024z M256,224.634c-24.966,0-45.204-20.239-45.204-45.204
	s20.239-45.204,45.204-45.204s45.204,20.239,45.204,45.204S280.966,224.634,256,224.634z"/>
<path style="fill:#F9B54C;" d="M256.288,89.031v45.204c24.831,0.155,44.916,20.327,44.916,45.196s-20.083,45.04-44.916,45.197
	v112.669c5.525-6.668,90.119-109.566,90.119-157.867C346.407,129.596,306.085,89.186,256.288,89.031z"/>
<g>
</g>
<g>
</g>
<g>
</g>
<g>
</g>
<g>
</g>
<g>
</g>
<g>
</g>
<g>
</g>
<g>
</g>
<g>
</g>
<g>
</g>
<g>
</g>
<g>
</g>
<g>
</g>
<g>
</g>
</svg>
